<?xml version="1.0" encoding="UTF-8" standalone="no"?>
<!-- Created with Inkscape (http://www.inkscape.org/) -->

<svg
   xmlns:dc="http://purl.org/dc/elements/1.1/"
   xmlns:cc="http://creativecommons.org/ns#"
   xmlns:rdf="http://www.w3.org/1999/02/22-rdf-syntax-ns#"
   xmlns:svg="http://www.w3.org/2000/svg"
   xmlns="http://www.w3.org/2000/svg"
   xmlns:sodipodi="http://sodipodi.sourceforge.net/DTD/sodipodi-0.dtd"
   xmlns:inkscape="http://www.inkscape.org/namespaces/inkscape"
   width="359.84375mm"
   height="170.46727mm"
   viewBox="0 0 359.84375 170.46727"
   version="1.1"
   id="svg8"
   inkscape:version="0.92.5 (2060ec1f9f, 2020-04-08)"
   sodipodi:docname="logo-TEXT.svg">
  <defs
     id="defs2" />
  <sodipodi:namedview
     id="base"
     pagecolor="#ffffff"
     bordercolor="#666666"
     borderopacity="1.0"
     inkscape:pageopacity="0.0"
     inkscape:pageshadow="2"
     inkscape:zoom="0.5"
     inkscape:cx="855.87898"
     inkscape:cy="236.82853"
     inkscape:document-units="mm"
     inkscape:current-layer="layer1"
     showgrid="false"
     fit-margin-top="0"
     fit-margin-left="0"
     fit-margin-right="0"
     fit-margin-bottom="0"
     inkscape:window-width="1920"
     inkscape:window-height="980"
     inkscape:window-x="0"
     inkscape:window-y="27"
     inkscape:window-maximized="1"
     showguides="true"
     inkscape:guide-bbox="true" />
  <metadata
     id="metadata5">
    <rdf:RDF>
      <cc:Work
         rdf:about="">
        <dc:format>image/svg+xml</dc:format>
        <dc:type
           rdf:resource="http://purl.org/dc/dcmitype/StillImage" />
        <dc:title></dc:title>
      </cc:Work>
    </rdf:RDF>
  </metadata>
  <g
     inkscape:label="Layer 1"
     inkscape:groupmode="layer"
     id="layer1"
     transform="translate(773.99373,275.84913)">
    <path
       style="opacity:1;fill:none;fill-opacity:1;fill-rule:evenodd;stroke:#000000;stroke-width:13.22916698;stroke-miterlimit:4;stroke-dasharray:none;stroke-opacity:1"
       d="m -610.14105,-190.6155 a 78.619049,78.619049 0 0 1 -78.61905,78.61905 78.619049,78.619049 0 0 1 -78.61905,-78.61905 78.619049,78.619049 0 0 1 78.61905,-78.61905 78.619049,78.619049 0 0 1 78.61905,78.61905 z"
       id="path815"
       inkscape:connector-curvature="0" />
    <g
       aria-label="Z"
       style="font-style:normal;font-weight:normal;font-size:103.81021118px;line-height:1.25;font-family:sans-serif;letter-spacing:0px;word-spacing:0px;fill:#ffffff;fill-opacity:1;stroke:none;stroke-width:2.59525514"
       id="text819"
       transform="translate(-454.3582,-268.33861)">
      <path
         d="m -266.20899,39.884084 h 63.61417 v 11.810439 l -40.60156,49.117237 h 41.76739 v 14.75037 h -65.94584 v -11.81044 l 40.60155,-49.117229 h -39.43571 z"
         style="font-style:normal;font-variant:normal;font-weight:bold;font-stretch:normal;font-family:sans-serif;-inkscape-font-specification:'sans-serif Bold';fill:#000000;fill-opacity:1;stroke-width:2.59525514"
         id="path840"
         inkscape:connector-curvature="0" />
    </g>
    <g
       aria-label="ZONE"
       style="font-style:normal;font-weight:normal;font-size:60.15563202px;line-height:1.25;font-family:sans-serif;letter-spacing:0px;word-spacing:0px;fill:#000000;fill-opacity:1;stroke:none;stroke-width:1.50389087"
       id="text867">
      <path
         d="m -578.87975,-230.66846 h 36.86295 v 6.84387 l -23.52767,28.46231 h 24.20324 v 8.54751 h -38.2141 v -6.84388 l 23.52767,-28.46231 h -22.85209 z"
         style="font-style:normal;font-variant:normal;font-weight:bold;font-stretch:normal;font-family:sans-serif;-inkscape-font-specification:'sans-serif Bold';letter-spacing:-4.79425001px;stroke-width:1.50389087"
         id="path912"
         inkscape:connector-curvature="0" />
      <path
         d="m -517.87878,-223.2665 q -5.16962,0 -8.01879,3.81847 -2.84917,3.81847 -2.84917,10.75047 0,6.90262 2.84917,10.7211 2.84917,3.81847 8.01879,3.81847 5.199,0 8.04817,-3.81847 2.84917,-3.81848 2.84917,-10.7211 0,-6.932 -2.84917,-10.75047 -2.84917,-3.81847 -8.04817,-3.81847 z m 0,-8.19503 q 10.57424,0 16.5663,6.05081 5.99207,6.05081 5.99207,16.71316 0,10.63298 -5.99207,16.68379 -5.99206,6.05081 -16.5663,6.05081 -10.54486,0 -16.56629,-6.05081 -5.99207,-6.05081 -5.99207,-16.68379 0,-10.66235 5.99207,-16.71316 6.02143,-6.05081 16.56629,-6.05081 z"
         style="font-style:normal;font-variant:normal;font-weight:bold;font-stretch:normal;font-family:sans-serif;-inkscape-font-specification:'sans-serif Bold';letter-spacing:-4.79425001px;stroke-width:1.50389087"
         id="path914"
         inkscape:connector-curvature="0" />
      <path
         d="m -491.56716,-230.66846 h 12.63034 l 15.94946,30.07781 v -30.07781 h 10.7211 v 43.85369 h -12.63033 l -15.94947,-30.07782 v 30.07782 h -10.7211 z"
         style="font-style:normal;font-variant:normal;font-weight:bold;font-stretch:normal;font-family:sans-serif;-inkscape-font-specification:'sans-serif Bold';letter-spacing:-4.79425001px;stroke-width:1.50389087"
         id="path916"
         inkscape:connector-curvature="0" />
      <path
         d="m -446.01632,-230.66846 h 30.51841 v 8.5475 h -19.20986 v 8.16566 h 18.06431 v 8.5475 h -18.06431 v 10.04552 h 19.85606 v 8.54751 h -31.16461 z"
         style="font-style:normal;font-variant:normal;font-weight:bold;font-stretch:normal;font-family:sans-serif;-inkscape-font-specification:'sans-serif Bold';letter-spacing:-4.79425001px;stroke-width:1.50389087"
         id="path918"
         inkscape:connector-curvature="0" />
    </g>
    <g
       aria-label="CLEANING"
       style="font-style:normal;font-weight:normal;font-size:32.45685959px;line-height:1.25;font-family:sans-serif;letter-spacing:0px;word-spacing:0px;fill:#000000;fill-opacity:1;stroke:none;stroke-width:0.81142151"
       id="text867-3">
      <path
         d="m -560.82919,-154.10779 q -1.6799,0.87165 -3.50243,1.3154 -1.82253,0.44374 -3.80354,0.44374 -5.91133,0 -9.36621,-3.2964 -3.45488,-3.31225 -3.45488,-8.97001 0,-5.67361 3.45488,-8.97001 3.45488,-3.31225 9.36621,-3.31225 1.98101,0 3.80354,0.44375 1.82253,0.44374 3.50243,1.31539 v 4.89705 q -1.69575,-1.15691 -3.34395,-1.69574 -1.6482,-0.53884 -3.47073,-0.53884 -3.2647,0 -5.13477,2.09195 -1.87008,2.09195 -1.87008,5.7687 0,3.66091 1.87008,5.75285 1.87007,2.09195 5.13477,2.09195 1.82253,0 3.47073,-0.53884 1.6482,-0.53883 3.34395,-1.69574 z"
         style="font-style:normal;font-variant:normal;font-weight:bold;font-stretch:normal;font-family:sans-serif;-inkscape-font-specification:'sans-serif Bold';letter-spacing:-2.00289583px;stroke-width:0.81142151"
         id="path895"
         inkscape:connector-curvature="0" />
      <path
         d="m -557.77655,-176.46942 h 6.10151 v 19.04939 h 10.7133 v 4.61179 h -16.81481 z"
         style="font-style:normal;font-variant:normal;font-weight:bold;font-stretch:normal;font-family:sans-serif;-inkscape-font-specification:'sans-serif Bold';letter-spacing:-2.00289583px;stroke-width:0.81142151"
         id="path897"
         inkscape:connector-curvature="0" />
      <path
         d="m -539.09771,-176.46942 h 16.46615 v 4.61179 h -10.36464 v 4.40577 h 9.74657 v 4.61179 h -9.74657 v 5.42004 h 10.7133 v 4.61179 h -16.81481 z"
         style="font-style:normal;font-variant:normal;font-weight:bold;font-stretch:normal;font-family:sans-serif;-inkscape-font-specification:'sans-serif Bold';letter-spacing:-2.00289583px;stroke-width:0.81142151"
         id="path899"
         inkscape:connector-curvature="0" />
      <path
         d="m -504.57079,-157.11892 h -9.54054 l -1.50557,4.31068 h -6.1332 l 8.76398,-23.66118 h 7.27427 l 8.76399,23.66118 h -6.13321 z m -8.01913,-4.38992 h 6.48187 l -3.23301,-9.41375 z"
         style="font-style:normal;font-variant:normal;font-weight:bold;font-stretch:normal;font-family:sans-serif;-inkscape-font-specification:'sans-serif Bold';letter-spacing:-2.00289583px;stroke-width:0.81142151"
         id="path901"
         inkscape:connector-curvature="0" />
      <path
         d="m -495.81284,-176.46942 h 6.81467 l 8.6055,16.22843 v -16.22843 h 5.78455 v 23.66118 h -6.81467 l -8.60551,-16.22843 v 16.22843 h -5.78454 z"
         style="font-style:normal;font-variant:normal;font-weight:bold;font-stretch:normal;font-family:sans-serif;-inkscape-font-specification:'sans-serif Bold';letter-spacing:-2.00289583px;stroke-width:0.81142151"
         id="path903"
         inkscape:connector-curvature="0" />
      <path
         d="m -470.65214,-176.46942 h 6.10151 v 23.66118 h -6.10151 z"
         style="font-style:normal;font-variant:normal;font-weight:bold;font-stretch:normal;font-family:sans-serif;-inkscape-font-specification:'sans-serif Bold';letter-spacing:-2.00289583px;stroke-width:0.81142151"
         id="path905"
         inkscape:connector-curvature="0" />
      <path
         d="m -460.5788,-176.46942 h 6.81468 l 8.6055,16.22843 v -16.22843 h 5.78455 v 23.66118 h -6.81467 l -8.60551,-16.22843 v 16.22843 h -5.78455 z"
         style="font-style:normal;font-variant:normal;font-weight:bold;font-stretch:normal;font-family:sans-serif;-inkscape-font-specification:'sans-serif Bold';letter-spacing:-2.00289583px;stroke-width:0.81142151"
         id="path907"
         inkscape:connector-curvature="0" />
      <path
         d="m -414.14997,-154.56738 q -2.28212,1.10937 -4.73857,1.66405 -2.45645,0.55468 -5.07138,0.55468 -5.91134,0 -9.36622,-3.2964 -3.45488,-3.31225 -3.45488,-8.97001 0,-5.72115 3.51827,-9.00171 3.51828,-3.28055 9.63563,-3.28055 2.36137,0 4.51671,0.44375 2.17118,0.44374 4.0888,1.31539 v 4.89705 q -1.98101,-1.12521 -3.94617,-1.67989 -1.94931,-0.55469 -3.91448,-0.55469 -3.64505,0 -5.62606,2.04441 -1.96516,2.02855 -1.96516,5.81624 0,3.75599 1.90177,5.8004 1.90176,2.0444 5.40419,2.0444 0.95088,0 1.75914,-0.11094 0.8241,-0.12678 1.47387,-0.38035 v -4.59594 h -3.7243 v -4.08881 h 9.50884 z"
         style="font-style:normal;font-variant:normal;font-weight:bold;font-stretch:normal;font-family:sans-serif;-inkscape-font-specification:'sans-serif Bold';letter-spacing:-2.00289583px;stroke-width:0.81142151"
         id="path909"
         inkscape:connector-curvature="0" />
    </g>
  </g>
</svg>
